<?xml version="1.0" encoding="UTF-8"?><svg id="Layer_1" xmlns="http://www.w3.org/2000/svg" viewBox="0 0 715.178 870.7606"><defs><style>.cls-1{fill:#2a2828;}.cls-2{fill:#2a2829;}.cls-3{fill:#faf9fa;}.cls-4{fill:#312e2f;}.cls-5{fill:#383737;}.cls-6{fill:#f7f6f6;}.cls-7{fill:#1b1a1b;}.cls-8{fill:#f2f1f2;}.cls-9{fill:#252122;}.cls-10{fill:#1c1a1b;}.cls-11{fill:#f6f6f6;}.cls-12{fill:#f7f5f6;}.cls-13{fill:#f4f4f4;}.cls-14{fill:#272425;}.cls-15{fill:#262526;}.cls-16{fill:#2b292a;}.cls-17{fill:#2c2a2a;}.cls-18{fill:#323031;}.cls-19{fill:#4d4d4d;}.cls-20{fill:#313030;}.cls-21{fill:#3a3a3a;}.cls-22{fill:#353434;}.cls-23{fill:#3d3d3d;}.cls-24{fill:#201e1f;}.cls-25{fill:#262324;}.cls-26{fill:#cecccd;}.cls-27{fill:#242122;}.cls-28{fill:#282727;}.cls-29{fill:#242223;}.cls-30{fill:#3b393a;}.cls-31{fill:#282526;}.cls-32{fill:#2d2b2c;}.cls-33{fill:#292627;}.cls-34{fill:#f9f9f9;}.cls-35{fill:#292728;}.cls-36{fill:#bbb9ba;}.cls-37{fill:#2a2728;}.cls-38{fill:#282627;}.cls-39{fill:#f9f8f9;}.cls-40{fill:#fafafa;}.cls-41{fill:#272626;}.cls-42{fill:#101010;}.cls-43{fill:#f8f8f8;}.cls-44{fill:#2c2a2b;}.cls-45{fill:#1f1e1e;}.cls-46{fill:#545152;}.cls-47{fill:#282527;}.cls-48{fill:#e6e5e6;}.cls-49{fill:#fefefe;}.cls-50{fill:#252223;}.cls-51{fill:#fcfbfc;}.cls-52{fill:#2e2d2d;}.cls-53{fill:#363435;}.cls-54{fill:#2d2a2b;}.cls-55{fill:#fbfbfb;}.cls-56{fill:#201b1d;}.cls-57{fill:#1a191a;}.cls-58{fill:#242222;}.cls-59{fill:#333132;}.cls-60{fill:#f8f7f7;}.cls-61{fill:#484848;}.cls-62{fill:#302f2f;}.cls-63{fill:#f4f3f3;}.cls-64{fill:#2e2c2d;}.cls-65{fill:#272526;}.cls-66{fill:#201c1d;}.cls-67{fill:#fdfdfd;}</style></defs><rect class="cls-49" width="715.178" height="870.7606"/><path class="cls-67" d="M122.5305,357.8125c1.5329-.3175,2.7508-.5033,2.8657-.228,5.0659,12.1321,9.0599,24.6554,12.5719,37.1989,24.4473,17.2608,42.1407,45.6406,22.0717,73.1253-.7271,1.0975-.4161,3.9516-2.5006,5.0044-3.1744.0323-6.5196-.6455-8.4665-3.3001-16.0471-21.8799-32.6396-44.6553-46.5472-66.7611-13.3707-7.1386-19.7078-28.8227-13.9837-43.6404.663-1.7164,27.6475-17.1991,30.0939-16.4686,2.2431.6698,7.6199,13.2923,3.8948,15.0697Z"/><path class="cls-27" d="M140.0349,342.7994l-3.805,5.1683c-4.0091-4.1469-6.9085-1.6994-8.6981,7.3427,2.1728,6.751-.1971,7.5338-5.0012,2.5022-.8289-2.018-5.6046-12.7898-6.2392-12.4986-2.2905,7.9676-22.6997,14.9605-23.827,16.7548-6.3372,10.0869,3.9172,31.7339,10.0612,40.7832,2.9525,4.7241,2.9525,7.2263,0,7.5066-2.2739-3.0566-17.5772-22.1151-19.0147-22.4193-3.552-.7517-17.8197,17.5209-23.4837,12.3972-4.764-4.3095,19.1481-16.9856,21.4219-19.8045,7.22-8.9508-.4112-27.3239-1.3549-39.0382-.9702-12.0436-2.5899-24.2698-.0825-36.2107-11.3333,1.4111-12.8757,15.8075-23.1806,20.5866-3.5544,1.6484-9.1611,2.2602-9.2575-1.8217-.079-3.3474,24.9164-23.5033,29.529-30.458,8.2875-12.4954,6.6994-17.3794,7.9185-30.8605-3.3565-3.9405-2.7518-6.1455,2.5006-5.0044,18.297,28.4962,42.4039,48.8114,52.5131,85.0743Z"/><path class="cls-27" d="M140.0349,345.3016c5.9926-1.3165,5.2085,3.0217,7.0571,6.572,5.0351,9.6703,9.3384,21.794,12.9897,32.1701,19.3571,55.0076,28.8881,113.93,59.9731,163.935-3.3572,6.2027-8.5195,3.5017-10.0025-2.5022-.3947-4.3292-2.4765-8.0052-4.5486-11.6981-11.7602-20.9592-23.138-39.9316-32.3923-62.6823-1.7142-4.2141-3.0014-8.6084-3.0959-13.1934-3.7223,1.7562-7.7407,6.6328-9.9756,10.0061-4.4573-12.8526,9.0394-16.8484,3.8956-32.6687-.6168-1.8972-19.7586-32.4821-21.3256-33.7155-7.4884-5.8944-2.9056,3.7382-2.5997,8.8332-3.5648,4.5587-15.717-48.2543-17.4796-52.5451l5.0012-2.5022c5.7657,1.0413,10.024,6.1118,12.7747,15.2113-6.6818-12.1665-6.7724-20.5732-.2716-25.2201Z"/><path class="cls-58" d="M70.0174,60.0525c-7.008,19.5422,4.9997,28.9601,22.1352,35.9125l.3704,4.1224c9.3414,6.0532,8.2421,10.0274,12.5031,15.0131,2.1014,3.8245,1.4341,4.8825-2.5006,2.5022-5.274.7581-11.5122-2.8231-18.7144-10.7435-5.6235.8866-10.2214.2975-13.7937-1.7674-1.2388.7498-3.8384.0131-6.1481,2.4992-8.5421,9.1946-9.9438,33.3763-4.8332,44.7844,12.3171,27.4946,28.4867,11.3725,45.99,22.7776,3.314,3.5164,1.9168,4.8043-2.5006,2.5022-2.8453,5.1124-9.1602,5.1397-10.943-.4149l-4.0608.4149c-1.3539.5079-3.5864.0886-4.9099,1.3181-14.5013,13.4709-5.0167,63.2919,4.9099,78.7519-.4733,1.5796-2.3815,3.6875-2.5006,5.0044-11.3119-9.3314-16.3964-25.8083-17.5187-40.0477-3.4574-3.3773-20.2089,9.2417-22.4912,12.5236-3.5142,3.3161-4.8013,1.918-2.5006-2.5022-8.8469-10.2862,10.0379-17.5997,19.3276-20.2313.9605-1.1504,3.701-27.1071,3.1849-29.8099-1.0695-5.6008-18.0419-28.9562-25.013-27.5266-.7657,1.1911-1.601,1.1589-2.5006,0,.1771-.1944-2.8621-2.6869-1.4175-5.0656,2.5039-4.1227,8.4773-2.7636,9.1635-8.6615,2.0056-17.2381-11.6082-32.9394-7.2078-52.0624,1.0265-4.4607,24.9891-33.6689,29.4693-36.8002,6.9475-2.0678,8.3593,3.705,2.5006,7.5066Z"/><path class="cls-9" d="M400.0996,715.6251c26.3236,10.1935,56.0664,9.6881,80.8178,25.4746,10.7783,6.8744,14.1097,13.7956,26.7089,19.5647,2.1913,2.807,4.6919,4.4751,7.5019,5.0044,3.2384.506,21.862,14.1206,22.3773,16.5364.7509,3.52-5.2608,8.5644-8.6291,8.5672-5.8158.0047-6.5968-6.0449-8.747-7.5883-1.2109-3.649-4.5451-6.1512-10.0025-7.5066-1.4424-1.0255-3.5032-1.498-5.0012-2.5022-1.7398-5.1311-3.6829-6.9402-10.0025-7.5066-5.8155-3.5078-12.1701-7.6808-18.2937-10.4708-5.7047-2.5992-34.964-15.895-33.8424-3.7474.5814,6.297,9.9868,25.4805,12.1261,36.7378-3.7427,2.6525-6.374,3.7339-10.0025,0-1.2654,4.9332-3.5189,4.8473-5.0012,0-5.896-32.3869-2.3629-42.9025-35.0087-57.5503-2.8392-2.7399-6.1733-4.4081-10.0025-5.0044-2.6841-.0462-5.0716-1.6778-7.5019-2.5022-4.473-7.7826,5.8775-9.1654,12.5031-7.5066Z"/><path class="cls-27" d="M407.6014,122.6071c4.4665-1.1036,6.1336-.2696,5.0012,2.5022,1.9166,1.7309,1.0831,2.565-2.5006,2.5022-9.5761,7.5007-17.1326,16.9575-19.4218,29.3585-.949,5.1409-3.0788,31.6441-2.0241,35.7007,2.1953,8.4437,10.6524,13.0469,12.6363,17.5669,2.5147,5.7292.4842,12.5708,3.6855,18.2133,9.2418,16.2891,51.5377,51.773,66.4189,69.279,4.7886,5.6333,7.7804,13.0882,11.2233,17.5455,2.8035,6.4389-.5184,7.5878-5.0012,2.5022-13.7003-17.9842-29.7153-29.0567-43.7961-45.0041-23.637-26.7702-45.7183-55.293-68.7319-82.6074-2.6529-6.6565.0784-7.2719,5.0012-2.5022,1.8983-1.7112,3.9389-1.7886,6.2175-1.2076-1.4689-9.9852-1.4196-19.802.1478-29.4502-7.3103,4.4454-13.5998,6.3241-18.8683,5.636-3.607,3.112-4.9395,1.696-2.5006-2.5022-.3827-5.7694,10.1399-13.5192,14.4192-14.526,5.885-1.3845,14.6596,2.5986,15.469,1.9919,4.801-3.5987.7765-18.6269,22.6248-24.9987Z"/><path class="cls-50" d="M70.0174,515.4502c6.084,10.2778,14.7567,18.4848,20.3879,28.3719,8.4333,14.8069,12.5982,36.0443,24.8677,47.7002,6.7394,6.4023,16.1844,8.4867,21.8916,18.1297,6.9873,11.806,12.1441,31.0553,19.947,45.0973,9.2483,16.6431,23.9035,38.1111,35.4363,53.3691,4.8085,5.6066.991,8.372-5.0012,5.0044-12.3981-16.1908-32.833-39.913-42.0181-56.792-6.3785-11.7214-9.8789-30.8729-15.3775-39.0182-2.0739-3.0722-13.2706-10.341-17.6796-15.4792-16.5036-19.2328-31.4269-57.7001-44.9546-81.3789-1.833-5.3273-.9994-6.9954,2.5006-5.0044Z"/><path class="cls-27" d="M277.5691,773.1753c4.7425,2.1531,10.2571,2.1308,15.0037,0,3.3222-.0793,6.6929.1942,10.0025,0,8.1517-1.885,14.0818-.0197,5.0012,5.0044-19.8093,5.7799-35.2095,6.6152-55.0014.0133,4.9572,22.0608,22.5816,38.3703,25.0306,61.2554-9.7238,4.7871-6.3592-13.7614-15.0273-11.212-3.6444,4.5679,7.4513,39.7851-3.6579,37.457-15.0673-3.1577-6.6415-52.0876-9.4217-65.6814-1.0686-5.225-15.713-31.7003-19.4416-36.8455-1.7606-4.142-2.5666-6.4969,2.5006-5.0044,11.5233,11.5876,29.7589,14.3467,45.0112,15.0131Z"/><path class="cls-25" d="M185.0461,110.0962c32.1329,21.1591,87.0044,38.2167,107.083,69.2541,27.0627,41.8333,53.2823,85.5395,82.9643,125.9164,2.8035,6.4389-.5184,7.5878-5.0012,2.5022-31.7121-44.6912-58.5289-92.7145-95.0341-134.0467-2.7392-2.1933-8.8705,2.4805-9.9756,1.4596-.35-.3233-.3694-6.3829-1.9198-9.336-6.332-12.0609-59.7975-34.929-75.5761-44.645-2.811-1.7309-4.1313-5.5106-5.0411-6.1002-5.7501-4.2236-4.373-6.0979,2.5006-5.0044Z"/><path class="cls-50" d="M602.65,465.4065c4.7719,25.8013,25.9483,57.2352,32.4795,83.8518,11.141,16.5629,43.4561,17.4325,50.9206,26.0208,2.1678,2.4941,2.4743,9.2968,1.6086,10.2195-3.7081,3.9524-52.079-14.3456-57.5977-21.1599-4.2554-5.2544-11.9385-27.245-14.9526-35.0818-6.8348-17.7705-13.3694-37.7391-17.4596-56.3439-1.0253-9.2026.6418-11.7048,5.0012-7.5066Z"/><path class="cls-14" d="M32.5081,205.1792l5.165,2.2593c.125,7.7634.4773,15.561.8932,23.3261.096,1.7927,1.7644,2.2567,3.9443,1.9386l2.5006,2.5022c-13.5559,19.4929-11.5392,41.9355-15.3419,63.4674-5.0487,28.5871-11.8122,52.3654-12.165,81.6594-2.2187,7.274-2.4781,15.2623,0,22.5197.3125,3.2127-.5145,7.0243,0,10.0087,1.788,9.243,1.3425,16.3628-5.0012,5.0044C.037,355.1052,32.8232,294.4646,27.5068,235.2054c.1306-7.6776-.703-15.1842-2.5006-22.5197-.29-7.7741-.661-17.4311,0-25.0219,4.2341-8.845,6.7347-3.0066,7.5019,17.5153Z"/><path class="cls-38" d="M250.0622,227.6989c14.7853,16.4,26.2081,46.9566,37.4447,66.9136,16.0449,28.497,31.7996,57.3628,55.078,80.6901-4.5741.5808-7.4165-.0299-11.3868-2.3432-12.238-7.1305-38.8384-47.3298-46.571-60.9932-11.8726-20.979-24.6477-63.6322-37.0655-79.2629-4.4636-4.9818-3.6301-6.6499,2.5006-5.0044Z"/><path class="cls-47" d="M485.1207,250.2186c-1.667-11.1966-11.2599-16.472-16.0969-25.1792-1.9783-3.5612-.8219-8.8028-2.8091-12.2022-2.2664-3.877-16.0961-26.626-17.3164-27.7121-8.9057-7.9259-22.1324,5.9978-31.2944-12.4743,1.3238-2.4102,2.9909-1.5762,5.0012,2.5022,2.6632-3.6342,7.5564-4.7603,14.6795-3.3782-1.2607-9.3057.5145-15.6862,5.3255-19.1415-2.0873-6.2991-1.2537-7.9672,2.5006-5.0044,12.3094,38.4579,37.2758,90.6699,67.5168,117.6027,5.4328,4.7841.9358,8.6043-5.0012,5.0044-3.1119-2.7929-4.9637-5.0663-7.5019-7.5066-5.9739,3.22-9.1989,1.9491-7.5019-5.0044-3.1967,1.5827-4.0303-.0854-2.5006-5.0044"/><path class="cls-34" d="M90.0224,52.5459c2.7561-1.6251,7.0109-1.0968,7.5019,2.5022,2.4784.8116,16.7844,6.883,17.5044,7.5066,6.8074-1.3916,13.236,15.8078,9.0151,17.2228-1.2323.4131-2.6032.412-4.0138.2925-.2768.0391-3.0008,1.885-5.0012,2.5022-11.1782,17.2422-37.8338.8361-42.5106-15.0131-5.0952-2.6263-5.1161-4.8491,0-7.5066-3.0732-9.8211,11.4285-12.6944,17.5044-7.5066Z"/><path class="cls-29" d="M400.0996,715.6251l-12.5031,7.5066c-17.9438-6.0868-43.8795-26.6784-57.5143-40.035-4.4719-5.7241-2.7753-11.1792,5.0012-10.0087,12.2711,10.6384,50.5929,36.9519,65.0162,42.5372Z"/><path class="cls-3" d="M102.5255,177.6552c3.7214-1.6918,8.1337,3.7408,10.0025,7.5066,6.29,4.4235,7.9305,7.9832,12.5031,12.5109,3.7263,3.9538,10.0517,12.3552,2.5006,12.5109-3.3529,2.9721-7.5207,6.3083-12.5031,10.0087-2.219.6103-4.6967,2.7821-7.5019,2.5022-10.3688-9.562-21.7341-26.1609-15.0037-40.035-.8776-3.1546,1.9277-6.148-5.0012-5.0044,5.0896-1.9094,9.0928-2.3841,15.0037,0Z"/><path class="cls-15" d="M280.0697,613.0355c19.3218,18.7915,36.3304,43.855,55.0137,60.0525l-5.0012,10.0087c-19.6235-19.223-39.4011-43.9958-57.5143-65.0568-4.4045-8.451.1116-10.2179,7.5019-5.0044Z"/><path class="cls-38" d="M157.5392,472.9131c3.6928,6.9817.8679,17.1967-2.2726,23.9958-.9037,1.9565-1.4724,8.4347-5.2179,3.531-.8395-1.0991-1.7136-21.6807-3.8983-27.3903-2.6011-6.7977-36.5343-53.1596-43.6249-62.6911v-7.5066c3.4097,5.022,13.3085,13.1062,17.4361,18.8344,12.375,17.1736,23.3271,35.4975,37.5776,51.2268Z"/><path class="cls-65" d="M602.65,465.4065c-3.5862,1.087-4.9643,3.855-5.0012,7.5066-4.8338-21.9872-5.9917-45.6655-10.6746-68.1376-2.5534-12.2531-10.6066-21.9428-9.3304-36.9542-2.4178-4.3005-1.8313-5.2474,2.5006-2.5022,21.7046,44.0632,14.5459,57.0502,22.5056,100.0874Z"/><path class="cls-25" d="M257.5641,387.8388c2.1039,6.4689-.1708,11.8728-5.0012,5.0044-13.7152-26.4907-27.916-54.4757-42.5106-80.0699-2.2455-6.0979-1.412-8.6001,2.5006-7.5066,22.966,25.5612,28.6627,51.7036,45.0112,82.5721Z"/><path class="cls-8" d="M102.5255,117.6027c3.267-.7739,5.6993,4.1853,5.0012,7.5066,3.0813,6.6768-15.1405,11.4359-14.0948,10.7028,2.4878-1.7441,7.8441-2.3947,6.5929,1.8081-4.5119,3.2234.0466,4.9209-10.0025,2.5022-14.7433-9.2908-21.4116-20.9677-20.005-35.0306,15.4385-9.3438,21.5443.4896,32.5081,12.5109Z"/><path class="cls-12" d="M127.5317,355.3103c-3.1295-9.359-5.5185-20.0259-4.9753-30.0141,6.9783,3.8071,5.8601,20.1921,17.4785,17.5032.2158.7743-.2222,1.733,0,2.5022.6914,2.3935-.4938,6.8896.596,10.5497,4.6782,15.7118,12.3402,30.5133,14.3957,46.9865l-13.5793-12.67c-1.0912-12.9101-10.2689-23.9522-13.9155-34.8575Z"/><path class="cls-31" d="M167.5417,170.1486c3.314,3.5164,1.9168,4.8043-2.5006,2.5022-2.0258-1.3425-15.8791-9.3952-16.8306-9.5733-8.3234-1.5578-2.8805,4.095-12.7968-2.7267-1.4381-.9893-4.8884.2102-5.3851-.2303-.951-.8435,3.6109-7.2865,1.3706-12.383-1.0103-2.2984-14.2951-14.5088-17.1199-15.7969-7.0676-3.2228-8.5408,1.5977-14.2544,5.6795l-7.4904-1.2396c4.7825-4.2983,10.2958-6.7321,14.9922-11.2713-1.0362-2.1428-.0891-2.8974,2.5006-2.5022,12.4896,11.881,42.8778,36.1995,57.5143,47.5415Z"/><path class="cls-37" d="M317.579,130.1136c2.7691,6.7361.2757,5.9663-5.0012,2.5022-23.7655-16.7485-65.0122-30.3036-92.523-45.0393-3.0587-2.2419-2.2252-3.076,2.5006-2.5022,29.2069,12.7713,71.1477,23.5123,95.0236,45.0393Z"/><path class="cls-35" d="M70.0174,515.4502l-2.5006,5.0044c-16.1947-28.3471-48.9651-72.1383-55.0137-102.5896l4.9762,2.4999.025-7.5043c4.6828,27.163,37.5283,77.2757,52.5131,102.5896Z"/><path class="cls-16" d="M137.5342,77.5678c6.1032-3.6083,20.5711,3.779,22.5056,10.0087,1.4831.772,1.4594,1.607,0,2.5022-.1493.5417-4.7009.4765-.026,3.6643,10.3189,2.8422,17.3086,11.2672,25.0322,16.3531l-2.5006,5.0044c-5.0141-3.2495-25.519-16.794-28.7313-17.554-7.9397-1.8784,1.8034,9.3321-1.2907,12.5395l-14.9706.0032c2.9381-15.7231,18.4721-19.9398-5.0199-27.5171-9.6926-4.8508,1.2106-14.6431,5.0012-5.0044Z"/><path class="cls-37" d="M222.5554,547.9786c6.7574,3.9086,18.4855,25.5207,25.0258,33.0536,9.9458,11.4552,21.643,21.4554,32.4885,32.0032-4.1505-.8738-5.5734,1.885-7.5019,5.0044-12.8708-14.9655-24.921-32.014-38.3849-46.6664-2.8693-3.1225-13.9407-8.5605-14.1281-13.3861-5.2985-4.0658-3.062-7.903,2.5006-10.0087Z"/><path class="cls-28" d="M232.5579,758.1622l-2.5006,5.0044c-11.3787-15.7018-28.9992-32.3991-42.5106-50.0437l5.0012-5.0044c8.8592,11.7207,31.0991,41.0831,40.01,50.0437Z"/><path class="cls-63" d="M70.0174,60.0525c.5803-2.2613,1.4208-2.1991,2.5006,0-.1197,2.488.1789,5.0272,0,7.5066,3.3717,10.4156,12.1574,16.7273,21.4909,21.3827l1.0147,3.6392-2.5006,7.5066c-13.2993-8.6179-28.4791-6.659-29.1342-28.3128-.0428-1.4137,1.4779-11.1133,1.8341-11.5787.7234-.9452,3.7044.261,4.7945-.1435Z"/><path class="cls-41" d="M165.0411,250.2186c3.314,3.5164,1.9168,4.8043-2.5006,2.5022-3.8474-4.0097-12.9412-12.2451-17.5044-15.0131-3.2901,2.3563-8.7135,1.9015-10.0025-2.5022,1.402-2.8081,4.988-5.1533,4.9677-8.7242-.0264-4.6372-5.0816-7.9957-7.4683-11.2932-6.8412-.3472-8.5083-2.0153-5.0012-5.0044-.1809-.6686,3.1958-8.0155-2.5006-12.5109,16.0994,15.941,24.2116,34.1491,40.01,52.5459Z"/><path class="cls-16" d="M512.6276,265.2317c13.8337,12.3204,34.9821,23.7546,34.9835,45.039-6.3557-1.947-4.7683-10.3104-8.1798-14.3337-2.808-3.3116-24.8412-19.4511-31.805-25.701l5.0012-5.0044Z"/><path class="cls-44" d="M445.1108,147.6289c-2.4346.6751-2.3373,2.8856-2.5006,5.0044-5.2838-.3579-9.1131-4.6616-11.488-12.9112-4.6724,2.921-8.3449,3.0544-11.0176.4003-.7098,2.1849-1.5451,2.1531-2.5006,0,.8288-1.4346.8142-2.8282,2.5006-5.0044,1.8936-4.7587-.607-8.095-7.5019-10.0087-.2764-.0421-2.4757-3.4827-5.0012-2.5022,31.5448-9.1996,29.5166.0504,37.5093,25.0219Z"/><path class="cls-24" d="M502.6251,340.2972c11.4408,15.2929,15.7828,23.2921,30.0075,37.5328,4.1231,5.2632,4.4733,6.0055-2.5006,5.0044-16.4424-15.6199-18.2917-14.6858-32.5081-35.0306-2.6007-6.45-2.6382-9.7051,5.0012-7.5066Z"/><path class="cls-59" d="M215.0535,82.5721c3.4688,2.9704,1.9649,3.0308-2.5006,2.5022-2.3968.9247-5.6139.5591-8.1902,2.3582-3.4612,2.4172-2.9919,8.999-9.3015,7.6377-1.3737-4.5758,3.7156-6.0104,4.6246-9.2992,2.9064-10.5144-18.2787-12.5755-24.6423-15.7099-2.9413,2.6277-2.9706,1.2854-2.5006-2.5022-3.6791,3.2336-4.9131,1.8614-2.5006-2.5022-1.3946-.7519-1.3612-1.5879,0-2.5022,15.0167,6.4183,30.7105,13.8167,45.0112,20.0175Z"/><path class="cls-2" d="M375.0933,305.2666c3.4747,4.7267,10.5528,16.7848,13.2412,19.2674,5.1719,4.7761,18.8477,5.9724,16.7529,18.2532-19.059-3.4026-25.4093-21.5091-34.9953-35.0185l5.0012-2.5022Z"/><path class="cls-62" d="M140.0349,50.0437c2.1835.7102,2.1518,1.5461,0,2.5022-4.031,5.9066-4.8645,10.0769-2.5006,12.5109,4.4236,3.6043,5.7296,9.6613,0,12.5109-.4788.6848-6.9994-2.4509-5.0012,5.0044-4.4884-1.4477-7.0325-3.2748-12.5031-2.5022,3.9518-2.8502-3.5142-16.2274-5.0012-17.5153,6.3355,5.7624,7.0771-4.6343,12.5482-8.723,4.0936-3.0593,7.5693-3.5025,12.458-3.788Z"/><path class="cls-44" d="M532.6326,377.83c11.6563,11.6694,33.868,21.5902,29.9817,42.5249-4.3536-2.2923-3.4-8.6641-7.4099-13.8185-3.4272-4.4053-19.2967-18.2153-25.0724-23.7021l2.5006-5.0044Z"/><path class="cls-52" d="M207.5517,197.6727c2.8415,4.8185-.7603,3.8012-5.0012,2.5022-12.3057-8.5969-26.0007-19.897-37.5093-27.524l2.5006-2.5022c12.3055,9.5357,27.1043,18.3066,40.01,27.524Z"/><path class="cls-62" d="M115.0286,82.5721c-.0522,9.0142-12.4489,11.3483-20.005,10.0087-10.9034-1.933-23.329-13.6123-22.5056-25.0219,5.5965,9.0054,25.6802,21.7454,35.6581,19.5366,2.6631-.5896,5.0036-3.953,6.8525-4.5234Z"/><path class="cls-32" d="M92.523,182.6595c1.8055,6.49.9097,13.2127,3.7664,20.0258,3.4694,8.2744,15.0692,12.3129,11.2373,20.0092-13.7732-1.3741-19.418-19.2619-20.0988-31.2869-.2643-4.6687-2.0896-10.2312,5.0951-8.748Z"/><path class="cls-32" d="M355.0884,160.1399c.1754.022,2.4805,2.3264,2.5006,2.5022,3.8034,6.1756,8.4808,12.5405,14.0323,19.0946l-1.5292,5.9272-5.0012,2.5022c-9.6599-11.4651-19.72-22.8358-29.9951-33.7917,4.9359-2.7391,8.5204,3.9839,14.1518,5.5479,2.2541.626,5.2157-1.8609,5.8408-1.7824Z"/><path class="cls-64" d="M70.0174,105.0918c7.6586,2.8005.9038,8.468,3.7267,14.8486,5.1859,11.7219,16.8385,7.0778,16.2783,20.182-15.7273-3.7854-28.9634-18.7359-20.005-35.0306Z"/><path class="cls-56" d="M455.1133,788.1884c.1525.8026-.1297,1.6885,0,2.5022-1.1881,8.9728-1.1881,18.9815,0,30.0262-14.4264,4.901-10.8137-11.0009-12.5031-20.0175-1.0982-6.3454-.2646-10.5157,2.5006-12.5109,3.0722-.8951,4.9387-4.5429,10.0025,0Z"/><path class="cls-2" d="M37.5093,155.1355h2.5006l2.7458,5.1515c-4.8825,13.1106-6.6492,26.9749-5.3001,41.5929l-4.9476,3.2993c-.528-4.7629-4.9491-12.7605-2.5257-20.0168l-4.9762,2.5015c.6073-6.9738,3.7374-26.0756,7.2778-31.0278,2.0608-2.8826,4.9216-1.1673,5.2253-1.5006Z"/><path class="cls-37" d="M502.6251,340.2972l-5.0012,7.5066c-6.8428-9.7927-12.7893-20.5543-20.005-30.0262l5.0012-2.5022c6.49,8.4023,13.5929,16.4509,20.005,25.0219Z"/><path class="cls-54" d="M260.0647,395.3453c3.7373,7.1189,16.7737,12.7035,9.9729,25.0168-9.9037-3.3853-13.0254-9.7476-12.4735-20.0124-2.7645-4.172-2.5359-7.1623,2.5006-5.0044Z"/><path class="cls-1" d="M420.1046,140.1224c7.5012,4.6958,6.9985,28.063,2.5006,35.0306-1.5934-.4035-3.3258-1.9058-5.0012-2.5022-6.7564-13.622-7.2891-19.911,0-32.5284h2.5006Z"/><path class="cls-5" d="M580.1444,365.3191c-1.1595.2737-2.4044,1.3709-2.5006,2.5022-7.61-10.2509-14.1779-21.1577-20.005-32.5284-1.2948-3.772-1.1671-4.4666,2.5006-2.5022,8.5433,12.1992,13.1833,18.6795,20.005,32.5284Z"/><path class="cls-64" d="M212.5529,305.2666l-2.5006,7.5066c-5.518-9.6769-10.5973-16.4411-17.5044-25.0219.9688-1.9967,1.8024-4.4989,2.5006-7.5066,6.9721,7.9069,13.8527,20.9576,17.5044,25.0219Z"/><path class="cls-20" d="M187.5467,275.2404c3.314,3.5164,1.9168,4.8043-2.5006,2.5022-5.5356-6.5903-16.5345-18.7989-22.5056-25.0219l2.5006-2.5022c6.9716,8.1182,15.3887,17.0143,22.5056,25.0219Z"/><path class="cls-31" d="M455.1133,820.7169c-3.5038-8.6368-4.2506-16.2747-10.027-23.7471l2.5277-6.2558,4.9879,6.1932,2.5114-6.2165c.869,5.4499,6.6499,27.7671,0,30.0262Z"/><path class="cls-18" d="M92.523,50.0437c3.1538,2.2092,2.3203,3.0433-2.5006,2.5022-11.2582-.8625-10.3421,3.8603-17.5044,7.5066-.6256.3185-1.7303-.2859-2.5006,0l-2.5006-7.5066c1.3338-.9323.8194-4.006,6.2063-4.9776,7.5234-1.357,12.1081.5235,18.7999,2.4754Z"/><path class="cls-10" d="M250.0622,227.6989l-2.5006,5.0044c-2.475-3.1153-16.1667-14.7086-20.005-17.5153-1.0482-.7767-1.0174-1.6124,0-2.5022,8.2158,5.788,11.2961,2.5794,22.5056,15.0131Z"/><path class="cls-35" d="M220.0548,547.9786c.7984.281,1.9292-.3305,2.5006,0,2.0212,3.4084-2.5206,9.4933-2.5006,10.0087-4.632-4.0356-8.5988-.875-12.5031,2.5022-4.8289,3.7281-6.4959,2.8941-5.0012-2.5022-2.6135-3.0112-1.6599-6.1259,2.5006-5.0044,1.7146-1.1432,7.0228,2.4947,5.0012-7.5066,3.8052-.5608,6.6961,1.3385,10.0025,2.5022Z"/><path class="cls-65" d="M202.5504,557.9874l5.0012,2.5022c-6.9667,6.0261-7.7731,9.0564-17.5044,15.0131-3.5142,3.3161-4.8013,1.918-2.5006-2.5022,1.9389-2.189,3.1399-5.2216,5.0012-7.5066-1.2999-3.5601,1.7599-6.0301,5.0012-5.0044.7104-1.1222,2.2757-1.9989,2.5006-2.5022.7098-2.1849,1.5451-2.1531,2.5006,0Z"/><path class="cls-30" d="M162.5405,57.5503c3.3269,3.3786,2.0291,3.2369-2.5006,2.5022-1.7915,6.9427-15.3238,6.7427-17.5044,0-3.1336-1.51-3.4299-4.2396-2.5006-7.5066v-2.5022c13.779-.8046,13.41,3.3341,22.5056,7.5066Z"/><path class="cls-5" d="M317.579,130.1136c2.6145,2.3572,20.1872,19.8437,17.4916,22.5069-2.8522,2.818-18.6162-17.2727-22.4928-20.0047l5.0012-2.5022Z"/><path class="cls-21" d="M227.5566,212.6858v2.5022c-6.8946-5.0416-16.9708-9.3995-25.0062-15.0131l5.0012-2.5022c6.7956,4.8535,13.3518,10.3259,20.005,15.0131Z"/><path class="cls-61" d="M127.5317,210.1836c.5538,2.0462,3.9008,3.484,5.0012,5.0044-6.3434-.0338-11.5618,3.37-17.5044,5.0044-.0584-7.0467,6.4723-9.12,12.5031-10.0087Z"/><path class="cls-40" d="M202.5261,695.6062c-7.1932-5.7693-5.8492,4.8731-8.7258,4.9582-9.6144.2843,4.898-24.2346,8.7258-4.9582Z"/><path class="cls-6" d="M420.1046,135.118c1.5307-6.5314-4.8855-6.1792-10.0025-7.5066.8441-.6611,1.4458-1.9433,2.5006-2.5022,5.2112.7932,11.2478-2.0764,14.9535,3.7529-1.3523,2.871-6.152,4.5788-7.4516,6.2559Z"/><path class="cls-25" d="M510.127,775.6775l17.509,2.5273-7.5065,4.9792c-3.4098-2.4474-6.7285-5.1789-10.0025-7.5066Z"/><path class="cls-33" d="M302.5753,773.1753c3.8364-.2252,13.2541-5.1978,19.9924-2.4767-1.3869,3.7847-11.2253,6.3823-14.9911,7.4811.6005-5.3172.3126-5.6052-5.0012-5.0044Z"/><path class="cls-46" d="M145.0361,237.7076c-2.7756,4.1876-7.6301,5.5065-12.4903,4.9917-1.6096-4.4298,1.5436-5.6027,2.4878-7.4939,4.738-1.0754,6.4147.3259,10.0025,2.5022Z"/><path class="cls-10" d="M195.0485,280.2448c1.0919,6.1388,5.7346,8.3546-2.5006,7.5066-2.6581-3.3021-5.0321-7.0684-7.5019-10.0087l2.5006-2.5022c1.5934,1.7928,5.8464,3.1269,7.5019,5.0044Z"/><path class="cls-7" d="M560.1394,332.7907l-2.5006,2.5022c-2.5382-4.9529-4.9706-10.0313-7.501-14.9884,8.6714-1.4274,7.8737,9.4477,10.0016,12.4863Z"/><path class="cls-22" d="M172.5429,75.0656c-2.9735,6.939-5.2249,11.1678-12.5031,15.0131.2332-.8463-.3035-1.9274,0-2.5022-3.9852-7.2538,2.3993-14.2887,10.0025-12.5109.7098-2.1849,1.5451-2.1531,2.5006,0Z"/><path class="cls-2" d="M27.5068,235.2054c-.6226-6.9398-2.1735-13.7492-2.5006-22.5197,5.1925,5.1202,1.546,15.4605,2.5006,22.5197Z"/><path class="cls-25" d="M505.1257,773.1753c-3.4361-2.3033-7.0765-5.7417-10.0025-7.5066,5.2373-3.9051,15.6381,2.0012,10.0025,7.5066Z"/><path class="cls-35" d="M17.5044,402.8519c-4.2131-4.6649-4.2131-17.8548,0-22.5197-.0861,7.1514-.6714,15.6177,0,22.5197Z"/><path class="cls-23" d="M112.528,185.1617c-2.3372-1.6437-8.8621-7.0466-10.0025-7.5066l2.5006-2.5022c4.0757,2.6557,7.4154,4.2937,7.5019,10.0087Z"/><path class="cls-4" d="M260.0647,395.3453c-2.3981.7137-2.3857,2.8667-2.5006,5.0044-2.9209-1.761-3.5808-4.7629-5.0012-7.5066,5.3138.6009,5.6017.3128,5.0012-5.0044,1.7785,3.3581,1.8979,6.3584,2.5006,7.5066Z"/><path class="cls-31" d="M445.1108,788.1884l-2.5006,12.5109c-.7713-4.1163-1.7212-8.2298-2.5006-12.5109,1.5715-.2591,3.6784.3854,5.0012,0Z"/><rect class="cls-60" x="80.0378" y="217.722" width="12.4674" height="2.4385"/><path class="cls-42" d="M110.0274,122.6071c-.7783.8899-1.6522,1.6822-2.5006,2.5022-1.8133-2.261-3.0958-5.4174-5.0012-7.5066l2.5006-2.5022c2.0024,2.3429,4.0884,6.6382,5.0012,7.5066Z"/><path class="cls-25" d="M515.1282,765.6688c-.6357-.0993-6.0307,7.0945-7.5019-5.0044,2.7301,1.2501,6.1924.4262,7.5019,5.0044Z"/><path class="cls-29" d="M395.0983,725.6338c4.2831.0737,6.5474-8.1273,10.0025,5.0044-3.1318-1.4052-7.6049-.8047-10.0025-5.0044Z"/><path class="cls-17" d="M190.0473,575.5027c-1.8995,1.1627-3.2874,7.3462-10.0022,4.9792.4446-3.9787,5.577-5.3085,7.5016-7.4814l2.5006,2.5022Z"/><path class="cls-57" d="M170.0423,62.5546v2.5022c-5.0799,5.4618-10.4898,1.9818-10.0025-5.0044l2.5006-2.5022c4.1302,1.8947,7.0873,4.8272,7.5019,5.0044Z"/><path class="cls-43" d="M410.1323,172.668h2.4402c5.4162,12.7186-7.8564,12.7186-2.4402,0Z"/><path class="cls-33" d="M292.5728,773.1753c-2.368,4.0211-12.4847,4.0953-15.0037,0,4.9432.216,10.0522.1182,15.0037,0Z"/><path class="cls-66" d="M222.5554,85.0743l-2.5006,2.5022c-1.8441-.9877-5.442-.8182-7.5019-2.5022.6542-.2524,1.4733-2.0276,2.5006-2.5022,2.0992.9102,4.8503,1.3427,7.5019,2.5022Z"/><path class="cls-11" d="M197.5492,560.4896c-1.8463,2.9166-3.8104,3.5425-5.0012,5.0044-4.395-5.1948.3168-9.2415,5.0012-5.0044Z"/><path class="cls-53" d="M175.0436,70.0612c.108,2.1549-1.9117,3.6301-2.5006,5.0044h-2.5006c-6.7863-2.5765-4.8786-7.7777,2.5006-7.5066.9336.4053,1.6862,2.101,2.5006,2.5022Z"/><path class="cls-11" d="M205.051,552.983c-.8519.568-1.5661,3.7861-2.5006,5.0044h-2.5006c.2691-.602-5.3472-10.5532,5.0012-5.0044Z"/><path class="cls-24" d="M212.5398,95.0703l-4.9755-.0004c-.8111-3.6876,1.1018-5.2018,3.7505-7.4809l1.2249,7.4814Z"/><path class="cls-45" d="M92.523,50.0437c3.1082.9067,6.1899-2.1393,5.0012,5.0044-1.5796-.5172-7.1076-2.472-7.5019-2.5022l2.5006-2.5022Z"/><path class="cls-55" d="M90.0371,352.8196c-.0372-18.2323-13.0177-43.379,2.4558-57.5557.9129,11.5875,17.3595,22.9711,17.675,33.6747.2916,9.8914-9.0976,24.8842-20.1308,23.881Z"/><path class="cls-36" d="M97.4772,280.2635c1.2746,1.0907,16.2866,28.6104,15.0262,30.0066-8.7625-2.2796-20.6048-20.5036-20.0156-28.7413.1574-2.2003,4.5267-1.6612,4.9894-1.2653Z"/><path class="cls-51" d="M42.5106,232.7033c-1.2979,1.7339-4.4864,8.5774-7.4872,5.0122-2.4447-2.9045-1.8907-26.9029-2.5152-32.5362-.2164-15.0988-1.2456-37.0096,7.5019-50.0437,1.0829-1.6136,7.2922-4.4774,8.7526-7.4616,2.076,6.6788,20.9732,30.5642,21.2761,33.7726.2145,2.272-2.7171,32.4337-3.6705,33.8433-1.8018,2.664-12.9097,4.5131-17.2827,7.7455-4.5728,3.3801-4.2476,6.559-6.5749,9.6681Z"/><path class="cls-13" d="M47.5419,122.6012c-1.8868-12.1617-9.5141-26.1268-1.1693-37.4234,8.7517-11.8473,16.5615,5.2667,16.1105,13.4614-.2389,4.3397-12.646,25.719-14.9412,23.962Z"/><path class="cls-39" d="M357.589,162.6421c4.431-2.3202,7.5438-7.2503,12.3696-8.9006,18.2691-6.2475,10.558,2.1418,10.0161,12.5131-.1802,3.449,4.5179,38.6838-2.3479,33.9148-.3675-5.4943-4.4142-8.6715-7.5347-12.5055-3.5589-4.3726-12.2382-13.4401-13.7514-17.7225-1.461-4.1346,1.3369-6.5274,1.2483-7.2993Z"/><path class="cls-40" d="M442.6102,152.6333c-1.3971,18.1296,6.2928,29.1786-20.005,22.5197-3.9772-11.2665-2.2022-23.3001-2.5006-35.0306,16.6637-12.8855,15.826.0394,22.5056,12.5109Z"/><path class="cls-26" d="M485.1207,250.2186c3.6046.7486,2.818.9418,5.0012,2.5022"/><path class="cls-43" d="M160.0398,60.0525c2.4252.4207,7.14,3.6865,10.0025,5.0044.8384.386,1.6031,2.1125,2.5006,2.5022-1.6844,2.0172-1.523,5.7744-2.5006,7.5066-2.2619,4.0078-7.5159,7.8019-10.0025,12.5109-8.7858.2537-15.5817-5.5792-22.5056-10.0087.3742-.5352-3.8889-8.4296,0-12.5109-4.0558-5.4472-.9388-7.8068,5.0012-5.0044,2.4923-.6412,14.5631-.5102,17.5044,0Z"/><path class="cls-48" d="M142.5355,60.0525c-.9596.2469-3.3685,3.9682-5.0012,5.0044-.5257.3337-2.6961-.4842-4.2789.6904-.541.4014-9.8287,14.2702-8.2657,3.0451,1.1176-8.0266,7.8251-13.7361,15.0453-16.2464,4.2721,1.7167,5.6071,3.8387,2.5006,7.5066Z"/><path class="cls-58" d="M117.9026,64.8551c-2.0463-3.3633-5.0363-6.0017-8.6329-7.6035-1.9025-.8473-3.8897-1.4804-5.7997-2.3077-2.0054-.8686-3.922-1.9263-5.7415-3.1353-1.6126-1.0715-3.1165,1.5257-1.5142,2.5904,3.4253,2.276,7.1376,3.6309,10.9145,5.177,3.41,1.3959,6.2577,3.6283,8.1833,6.7932,1.0021,1.647,3.5976.1412,2.5904-1.5142h0Z"/><path class="cls-58" d="M118.6856,67.2571c1.9304,0,1.9336-3,0-3-1.9304,0-1.9336,3,0,3h0Z"/><path class="cls-19" d="M176.5815,381.4897l10.9331-6.7412,2.7715,4.4941-7.3906,4.5566,11.2041,18.1719-3.543,2.1846-13.9751-22.666ZM186.9399,371.002l2.1802-4.3945c4.4902,5.0649,12.1543,8.542,18.7788,5.9834l-6.7886-11.0098,3.6953-2.2783,9.748,15.8096c-9.8145,5.9971-20.4209,2.8643-27.6138-4.1104ZM209.6592,391.2212l-11.2383,6.9292-2.7715-4.4961,24.5713-15.1504,2.7715,4.4961-9.6758,5.9663,2.9824,4.8379-3.6572,2.2549-2.9824-4.8379Z"/><path class="cls-19" d="M226.4429,425.0933l3.1001,5.0283-3.543,2.1846-8.126-13.1807-14.0957,8.6909-2.748-4.457,14.0947-8.6909-8.0322-13.0283,3.5425-2.1846,13.2002,21.4092c3.3091-1.1992,7.3071-3.2432,11.4595-5.8032l-11.4395-18.5518,3.5811-2.208,14.1641,22.9707c-5.4863,3.3818-10.8022,6.1865-15.1577,7.8208Z"/><path class="cls-19" d="M251.1646,312.7954l-2.1714,1.3389c3.4795,6.5815,3.4258,11.6099.0352,13.7007-3.7715,2.3252-8.8198-.6611-13.5645-8.3564-4.7212-7.6572-5.1221-13.5088-1.3506-15.834,3.3906-2.0908,7.8838.0811,12.1309,6.0317l2.1719-1.3389-8.0327-13.0283,3.5806-2.2075,18.9082,30.666-3.5811,2.2075-8.1265-13.1797ZM244.1641,314.0615c-2.8184-4.5713-5.5801-6.9175-7.2939-5.8604-1.6382,1.0098-.7812,4.5308,2.0371,9.1021,2.8418,4.6094,5.6499,7.0317,7.2881,6.022,1.7139-1.0571.8105-4.6543-2.0312-9.2637ZM261.9536,319.5498c-2.6343-5.2114-3.0591-11.7832-1.0044-15.7847-4.4092.3521-9.8594-2.8584-13.6289-7.9487.8057-1.3374,1.5488-2.6895,2.3164-4.0039,3.4932,5.1543,8.5063,8.4248,12.6636,7.4922l-5.8721-9.5244,3.5425-2.1841,15.0791,24.457-3.5425,2.1841-5.8955-9.5625c-2.583,3.4863-1.5454,9.9443,1.0591,14.5957l-4.7173.2793Z"/><path class="cls-19" d="M250.2261,334.7236l3.5425-2.1846,8.0332,13.0283,6.5898-4.0635-5.7539-9.334,17.2568-10.6401,2.7246,4.4189-5.2568,3.2412,8.9014,14.4385,5.3335-3.2881,2.7485,4.457-17.333,10.687-5.8721-9.5234-6.5908,4.0635,8.127,13.1807-3.543,2.1846-18.9077-30.666ZM282.835,345.7427l-8.9014-14.4385-5.0283,3.1001,8.9014,14.4385,5.0283-3.1001Z"/><path class="cls-19" d="M310.6748,297.5332c-.3643-4.0869,1.5264-10.8262,4.1919-13.8379-3.9839,1.2998-10.6304.667-15.0166-2.0977l1.6235-4.7856c6.5615,3.7349,13.6123,3.4888,20.7363-.9038l.9141-.5635-4.2275-6.8564,3.6572-2.2549,11.1572,18.0947-3.6572,2.2549-4.0869-6.6289-.8765.54c-7.1616,4.416-9.98,10.6753-9.6509,17.5181l-4.7646-.479ZM328.9258,298.0566l2.9829,4.8379-3.6953,2.2783-2.9829-4.8379-17.1807,10.5938-2.748-4.457,33.9424-20.9287,2.748,4.457-13.0664,8.0566Z"/><path class="cls-19" d="M342.2588,338.5259l-12.4951,7.7046-2.748-4.457,8.9521-5.52-11.7676-19.0859,3.543-2.1846,14.5156,23.543ZM328.9775,308.5435l15.5811-9.6069,2.7715,4.4951-4.5718,2.8188,2.937,4.7617,4.6094-2.8423,2.7705,4.4951-15.6191,9.6304-8.4785-13.752ZM342.228,313.1494l-2.9365-4.7617-3.9995,2.4663,2.9365,4.7617,3.9995-2.4663ZM341.3423,333.2021l8.1899-5.0498-1.5732-2.5527-7.8096,4.8154-2.5601-4.1523,18.7808-11.5801,2.5596,4.1523-7.3906,4.5566,1.5742,2.5527,8-4.9326,2.6309,4.2666-19.771,12.1904-2.6309-4.2666Z"/><path class="cls-19" d="M358.916,257.6885l12.9902-8.0093,13.5527,21.9814-12.9902,8.0093-13.5527-21.9814ZM379.2441,269.3408l-8.0566-13.0674-6.0566,3.7349,8.0566,13.0674,6.0566-3.7349ZM371.4873,246.1001l2.2041-4.355c4.3574,4.936,11.3828,8.9111,17.708,6.3779l-6.7178-10.8945,3.6572-2.2549,9.748,15.8096c-9.4648,5.626-18.8379,3.0444-26.5996-4.6831ZM394.4873,266.0938l-7.3896,4.5566-2.7715-4.4961,18.8945-11.6504,2.7715,4.4961-7.8857,4.8623,2.9834,4.8379-3.6191,2.2314-2.9834-4.8379Z"/><path class="cls-19" d="M395.0811,299.1177c.0752-3.8853,1.6562-10.2749,4.6465-13.6963-4.5283,1.2681-10.9092.4692-15.1279-1.7666.541-1.5962,1.0684-3.1299,1.5479-4.7388,6.9482,3.3389,14.1816,2.876,20.9619-1.3052l4.6475-2.8657,2.8418,4.6094-4.4189,2.7246c-6.7041,4.1343-10.0586,10.4604-10.1641,17.624-1.6689-.2339-3.2676-.3525-4.9346-.5854ZM413.2207,299.9727l3.0068,4.876-3.6572,2.2549-3.0059-4.876-17.2197,10.6172-2.7246-4.4189,33.9424-20.9287,2.7246,4.4189-13.0664,8.0566Z"/><path class="cls-19" d="M419.2891,226.355l9.8662-6.0835,2.7471,4.4561-6.3613,3.9229,11.3447,18.4004-3.5049,2.1606-14.0918-22.8564ZM443.248,206.3765l11.04,17.9043-3.543,2.1846-4.0869-6.6289c-4.0371,3.1729-4.3711,8.0054-3.1152,12.1733-1.627.0034-3.2158-.0146-4.8291-.0723-.7969-3.0835-.3906-8.2236,1.6201-11.3564-3.7988.6606-8.9365-.8511-12.0703-3.5459.6504-1.5044,1.2754-3.0479,1.9023-4.5908,4.2803,3.6182,8.9551,4.8892,13.5801,2.6685l-4.041-6.5518,3.543-2.1846ZM455.7969,234.2334l2.9609,4.7998-3.6953,2.2783-2.96-4.7998-10.7432,6.624-2.7246-4.4189,24.6094-15.1738,2.7246,4.4189-10.1719,6.2715ZM451.124,207.041l6.1074,9.9043-3.5049,2.1611-6.1074-9.9043,3.5049-2.1611Z"/><path class="cls-19" d="M445.4551,270.5825c-4.4863-7.2754-4.4365-13.2485-.2842-15.8091,4.2285-2.6069,9.5498.0547,14.0361,7.3301,4.5566,7.3906,4.5205,13.3013.291,15.9082-4.1523,2.5605-9.4863-.0386-14.043-7.4292ZM447.9902,259.3457c-2.0576,1.2686-1.6797,4.6104,1.0449,9.0293,2.7949,4.5332,5.6113,6.3721,7.668,5.1035,2.0576-1.2681,1.7168-4.6338-1.0771-9.167-2.7246-4.4189-5.5791-6.2339-7.6357-4.9658ZM473.5312,244.4912c3.0293,4.9141,2.0732,10.8667-2.6504,13.7793-4.7998,2.9595-10.1816.9673-13.2344-3.9849-2.9844-4.8389-2.3936-10.6182,2.4062-13.5776,4.6475-2.8657,10.4492-1.1309,13.4785,3.7832ZM460.998,252.2188c1.6445,2.667,4.6992,3.3589,7.29,1.7617,2.4385-1.5034,3.3389-4.4775,1.624-7.2578-1.6445-2.667-4.7432-3.1743-7.1426-1.6943-2.6289,1.6206-3.3926,4.5615-1.7715,7.1904ZM478.0449,266.0513l-3.8096,2.3491,2.6074,4.2285-3.5811,2.208-2.6074-4.2285-4.1904,2.5835-2.7949-4.5332,19.8467-12.2378,2.7949,4.5332-4.6094,2.8423,2.6074,4.2285-3.6562,2.2549-2.6074-4.2285Z"/></svg>